<svg width="1443" height="45" viewBox="0 0 1443 45" fill="none" xmlns="http://www.w3.org/2000/svg">
<path d="M1443 44.9938C1429.7 45.1329 1416.19 42.4499 1403.04 41.019C1393.49 40.0253 1380.37 40.2439 1371.89 36.9051C1363.95 33.6455 1355.44 31.3024 1346.63 29.9492C1339.76 28.9113 1332.99 27.5272 1326.35 25.8054C1319.55 24.0665 1312.31 23.9572 1305.35 22.5362C1301.53 21.7511 1297.84 20.7475 1294.08 20.2705C1286.26 19.2768 1277.21 20.2705 1269.26 20.2705C1262.62 20.2612 1255.99 19.742 1249.48 18.7204C1243.66 17.8558 1237.99 15.8187 1232.16 14.7456C1225.43 13.5531 1218.66 13.563 1211.73 13.7518C1205.31 13.924 1198.91 14.4621 1192.59 15.3616C1186.1 16.3553 1180.23 18.3427 1173.76 19.2768C1163.93 20.6382 1154.46 22.5958 1144.65 24.1062C1139.29 24.9896 1133.83 25.4358 1128.36 25.4378C1126.65 25.4378 1124.85 25.5471 1123.14 25.4378C1120.18 25.2987 1117.68 24.2652 1114.77 24.0367C1109.5 23.6292 1104.45 22.9734 1099.11 22.8542C1093.32 22.725 1087.99 20.9164 1082.12 21.453C1078.05 21.8207 1073.76 22.5461 1069.72 23.1026C1061.67 24.2155 1053.44 24.8813 1045.21 25.726C1031.63 27.1171 1018.4 28.3294 1004.87 30.2572C997.699 31.2509 990.603 32.3142 983.442 33.4967C979.613 34.1327 975.555 34.6693 971.713 35.4344C967.871 36.1996 964.054 36.3188 960.481 37.0243C956.741 37.7696 954.443 38.3758 950.423 38.3559L933.269 38.3559C927.869 38.3559 922.241 38.7136 916.854 38.4255C913.025 38.2068 909.464 37.1436 905.584 36.9945C900.619 36.8057 895.59 37.3721 890.625 37.1237C883.682 36.7759 877.376 35.7226 870.293 35.7921C865.208 35.7515 860.191 34.8708 855.576 33.2085C844.88 29.7902 832.461 27.6935 821.51 25.6961C818.766 25.1894 816.328 25.6961 813.584 25.4775C810.431 25.2589 807.572 24.2851 804.432 24.0466C798.51 23.5796 792.485 24.6329 786.563 23.818C780.985 23.0529 775.497 23.1324 769.779 22.5262C764.855 22.0015 759.901 21.6699 754.935 21.5325C750.059 21.3835 746 19.8234 741.252 19.1973C735.47 18.4322 729.509 18.6707 723.689 17.9751C720.115 17.5478 716.759 16.6833 713.198 16.2858C708.271 15.7393 703.612 14.6859 698.736 14.0201C683.808 12.0846 668.7 11.1108 653.566 11.1086C640.47 11.0092 630.387 13.8512 618.683 17.6472C616.465 18.3166 614.164 18.8029 611.816 19.098C607.323 19.883 605.97 21.9002 602.486 23.5497C597.38 25.9446 589.824 27.5245 583.965 28.0413C566.926 29.6213 549.989 24.6229 533.128 24.0168C529.299 23.8777 526.414 22.9336 522.713 22.7647C519.828 22.6256 517.186 22.9635 514.301 22.5362C510.255 21.93 506.643 20.1712 502.814 19.1973C498.121 17.9118 493.296 16.9378 488.391 16.2858C485.953 16.0274 483.656 16.4249 481.167 16.0274C478.678 15.6299 477.338 14.9344 474.785 14.9344C468.773 14.9344 462.864 17.2298 456.916 17.5776C449.194 18.0347 441.829 20.8469 434.171 21.8207C417.502 23.9472 401.42 27.6835 385.057 30.923C373.391 33.2284 362.695 35.7325 350.403 35.7425L332.062 35.7425C328.475 35.7425 326.356 36.3486 323.051 36.7858C319.286 37.1325 315.489 37.2256 311.704 37.0641C297.808 37.0641 283.905 37.0641 269.992 37.0641C261.875 37.0641 254.127 35.7822 246.111 35.7425C242.857 35.7425 241.095 35.8518 238.057 34.8283C232.646 33.0197 225.945 30.7342 220.01 30.4957C215.504 30.3069 212.939 29.2735 208.191 29.3033C198.958 29.3629 189.73 29.3629 180.506 29.3033C173.729 29.3033 167.998 30.8336 161.437 31.5987C157.774 32.036 154.188 31.708 150.512 32.1751C147.321 32.5825 144.015 33.7252 141.118 34.1625C133.306 35.4145 122.776 34.8382 115.322 33.4569C108.238 32.1353 99.4825 33.2085 92.1561 33.1688C84.0895 33.1688 77.0694 35.8816 69.0028 35.7623C64.6504 35.6928 61.5616 36.8753 57.3496 37.0144C53.1376 37.1535 50.0233 38.3658 45.7474 38.346C38.5104 38.346 29.512 39.4788 22.5431 38.0578C20.7945 37.7 19.3011 37.3324 17.527 37.0641C15.4976 36.7461 14.553 36.0704 12.6768 35.7027C9.31992 35.0667 4.49529 35.7723 0.998047 35.7723V-0.000976562L1443 -0.000976562L1443 44.9938Z" fill="#F7FAFF"/>
</svg>
